<?xml version="1.0" encoding="UTF-8"?>
<svg id="Calque_1" data-name="Calque 1" xmlns="http://www.w3.org/2000/svg" viewBox="0 0 46.6 48.52">
  <defs>
    <style>
      .cls-1 {
        fill: #1d1d1b;
      }

      .cls-2 {
        fill: #fff;
      }
    </style>
  </defs>
  <g>
    <circle class="cls-2" cx="6.24" cy="36.37" r="5.96"/>
    <path class="cls-1" d="M0,36.37c0-3.44,2.8-6.24,6.24-6.24s6.24,2.8,6.24,6.24-2.8,6.24-6.24,6.24S0,39.81,0,36.37ZM.54,36.37c0,3.14,2.55,5.69,5.69,5.69s5.69-2.55,5.69-5.69-2.55-5.69-5.69-5.69-5.69,2.55-5.69,5.69Z"/>
  </g>
  <g>
    <path class="cls-2" d="M12.2,48.52c0-3.29-2.67-5.96-5.96-5.96S.27,45.23.27,48.52"/>
    <path class="cls-1" d="M0,48.52h.54c0-3.14,2.55-5.69,5.69-5.69,3.14,0,5.69,2.55,5.69,5.69h.54c0-3.44-2.8-6.24-6.24-6.24-3.44,0-6.24,2.8-6.24,6.24Z"/>
  </g>
  <g>
    <circle class="cls-2" cx="40.36" cy="36.3" r="5.96"/>
    <path class="cls-1" d="M34.12,36.3c0-3.44,2.8-6.24,6.24-6.24s6.24,2.8,6.24,6.24-2.8,6.24-6.24,6.24-6.24-2.8-6.24-6.24ZM34.67,36.3c0,3.14,2.55,5.69,5.69,5.69s5.69-2.55,5.69-5.69-2.55-5.69-5.69-5.69-5.69,2.55-5.69,5.69Z"/>
  </g>
  <g>
    <path class="cls-2" d="M46.32,48.46c0-3.29-2.67-5.96-5.96-5.96s-5.96,2.67-5.96,5.96"/>
    <path class="cls-1" d="M34.12,48.46h.54c0-3.14,2.55-5.69,5.69-5.69,3.14,0,5.69,2.55,5.69,5.69h.54c0-3.44-2.8-6.24-6.24-6.24-3.44,0-6.24,2.8-6.24,6.24Z"/>
  </g>
  <g>
    <circle class="cls-2" cx="23.3" cy="35.73" r="5.97"/>
    <path class="cls-1" d="M17.05,35.73c0-3.44,2.8-6.24,6.24-6.24s6.24,2.8,6.24,6.24-2.8,6.24-6.24,6.24-6.24-2.8-6.24-6.24ZM17.6,35.73c0,3.14,2.56,5.7,5.7,5.7s5.7-2.56,5.7-5.7c0-3.14-2.56-5.7-5.7-5.7-3.14,0-5.7,2.56-5.7,5.7Z"/>
  </g>
  <g>
    <path class="cls-2" d="M29.27,47.9c0-3.3-2.67-5.97-5.97-5.97s-5.97,2.67-5.97,5.97"/>
    <path class="cls-1" d="M17.05,47.9h.54c0-3.14,2.56-5.7,5.7-5.7,3.14,0,5.7,2.56,5.7,5.7h.54c0-3.44-2.8-6.24-6.24-6.24-3.44,0-6.24,2.8-6.24,6.24Z"/>
  </g>
  <rect class="cls-1" x="18.96" y="23.56" width="8.68" height="2.64"/>
  <path class="cls-1" d="M27.49,21.36h-9.03v-4.23c-.91-.6-3.79-2.94-3.35-8.21.51-6.2,7.45-7.48,7.52-7.49.2,0,9.52.09,9.52,8.24,0,3.52-.77,5.88-2.28,7-.83.62-1.69.71-2.25.68l-.14,4.01ZM19.46,20.36h7.06l.15-4.25.62.18s1.05.28,2-.44c.85-.64,1.86-2.23,1.86-6.19,0-7.15-8.1-7.24-8.44-7.24-.17.04-6.16,1.15-6.61,6.58-.45,5.43,2.95,7.32,3.09,7.4l.26.14v3.81Z"/>
  <rect class="cls-1" x="4.48" y="1.5" width="5.58" height="3.14" transform="translate(3.46 -3.84) rotate(38.25)"/>
  <rect class="cls-1" x="3.36" y="9.44" width="5.58" height="3.14"/>
  <rect class="cls-1" x="4.48" y="17.51" width="5.58" height="3.14" transform="translate(-11.36 10.73) rotate(-45)"/>
  <rect class="cls-1" x="37.41" y="17.55" width="5.58" height="3.14" transform="translate(61.31 58.3) rotate(-143.75)"/>
  <rect class="cls-1" x="38.25" y="9.57" width="5.58" height="3.14" transform="translate(82.45 20.83) rotate(178)"/>
  <rect class="cls-1" x="36.85" y="1.54" width="5.58" height="3.14" transform="translate(68.95 -23.76) rotate(133)"/>
</svg>