<?xml version="1.0" encoding="UTF-8"?>
<svg id="Calque_2" data-name="Calque 2" xmlns="http://www.w3.org/2000/svg" viewBox="0 0 50 50">
  <defs>
    <style>
      .cls-1 {
        fill: #1d1d1b;
      }
    </style>
  </defs>
  <path class="cls-1" d="M15.41,21.65H6.3v-6.22L.02,15.25V6.27h6.43l-.18-5.66h9.03v6.28h6.44l-.59,8.55h-5.84l.09,6.19ZM8.3,19.65h5.08l-.09-6.19h6.01l.31-4.55h-6.3V2.62h-4.97l.18,5.66H2.02v5.03l6.28.18v6.17Z"/>
  <path class="cls-1" d="M29.91,21.38c-3.67,0-6.65-2.99-6.65-6.66s2.98-6.66,6.65-6.66,6.66,2.99,6.66,6.66-2.99,6.66-6.66,6.66ZM29.91,10.07c-2.57,0-4.65,2.09-4.65,4.66s2.09,4.66,4.65,4.66,4.66-2.09,4.66-4.66-2.09-4.66-4.66-4.66Z"/>
  <path class="cls-1" d="M38.46,26.28c-1.81-1.09-4.77-2.42-8.58-2.62-3.91-.21-7.04.86-8.99,1.79l-.43-.9c2.05-.98,5.35-2.1,9.47-1.89,4.02.21,7.14,1.62,9.05,2.76l-.51.86Z"/>
  <path class="cls-1" d="M29.7,48.91l-15.8-5.1v-19.49l15.81,4.96,16.16-4.96v19.58l-16.17,5ZM14.9,43.08l14.81,4.78,15.16-4.69v-17.49l-15.17,4.65-.15-.05-14.66-4.6v17.4Z"/>
  <path class="cls-1" d="M31.14,47.9h-3.19v-18.33h3.19v18.33ZM28.95,46.9h1.19v-16.33h-1.19v16.33Z"/>
  <path class="cls-1" d="M24.28,43.9h-7.18l-5.78-.97-.97-2.71c-.54-2.79-.46-4.35.23-4.7l.11-.05h4.52c4.19-6.71,4.5-6.91,4.6-6.98.4-.27,1.33-.19,2.04-.08l.42.07v3.09l-.96,1.86,4.24-.05.15.25c.22.38.92,1.66.52,2.48-.04.08-.08.14-.13.21l.12.03.09.23c.15.37.6,1.62.12,2.28-.1.13-.31.34-.68.38v.1c.05.24.19,1.47-.4,2.06-.05.05-.12.11-.19.15l.06.04-.16,1.57-.76.76ZM12.06,42.04l5.12.87h6.69s.21-.22.21-.22l.06-.6c-.53-.38-.71-.7-.58-1.03.18-.48.77-.39.97-.36.08.01.1,0,.1-.01.12-.12.17-.56.15-.96l-2.28-1.17,1.36-.3c.05-.01.54-.11,1.72,0,.1-.1.02-.59-.13-1.05l-1.68-.44c-.14-.02-.25-.06-.33-.11l-3.01-1.81,3.59.95c.14,0,.49.02,1.17-.07.01,0,.1-.01.11-.04.09-.19-.09-.78-.35-1.29l-5.32.06,1.61-3.12v-1.98c-.38-.04-.74-.05-.89-.02-.47.58-2.95,4.49-4.46,6.9l-.15.24h-4.7c-.13.48-.03,2.01.26,3.49l.75,2.08Z"/>
  <path class="cls-1" d="M33.76,43.76h-.21l-.76-.76-.16-1.57.06-.04c-.08-.05-.14-.1-.19-.15-.59-.59-.45-1.82-.41-2.06v-.1c-.36-.04-.56-.24-.66-.38-.48-.66-.03-1.91.12-2.28l.09-.23.12-.03c-.05-.06-.09-.13-.13-.2-.4-.82.3-2.11.52-2.49l.15-.25,4.24.05-.96-1.86v-3.09l.42-.07c.71-.11,1.63-.19,2.04.08.1.07.41.27,4.6,6.98h4.52l.11.05c.69.35.78,1.9.25,4.62l-.99,2.78-5.7.97h-7.06ZM33.96,42.76h6.77l5.04-.86.78-2.16c.27-1.41.37-2.93.24-3.41h-4.71l-.15-.24c-1.51-2.42-3.99-6.33-4.46-6.9-.15-.03-.5-.02-.89.02v1.98l1.61,3.12-5.32-.06c-.25.5-.44,1.09-.34,1.29.01.03.1.04.11.04.72.09,1.07.07,1.22.05l3.55-.94-3.02,1.81c-.08.05-.19.08-.33.11l-1.68.44c-.15.46-.23.95-.16,1.08,1.2-.13,1.69-.03,1.74-.02l1.36.3-2.28,1.17c-.02.4.03.84.15.96,0,0,.02.02.1.01.2-.03.79-.12.97.36.12.33-.05.65-.58,1.03l.06.61.21.21Z"/>
</svg>