<?xml version="1.0" encoding="UTF-8"?>
<svg id="Calque_1" data-name="Calque 1" xmlns="http://www.w3.org/2000/svg" viewBox="0 0 47.46 49.48">
  <defs>
    <style>
      .cls-1 {
        fill: #1d1d1b;
      }
    </style>
  </defs>
  <rect class="cls-1" x="22.58" y="20.42" width="2.28" height="26.16"/>
  <rect class="cls-1" x="33.35" y="25.63" width="2.31" height="5.74"/>
  <rect class="cls-1" x="24.41" y="4.53" width="2.34" height="5.95" transform="translate(2.95 21.59) rotate(-48.26)"/>
  <rect class="cls-1" x="42.29" y="4.53" width="2.34" height="5.95" transform="translate(66.79 44.93) rotate(-131.74)"/>
  <rect class="cls-1" x="33.35" y="0" width="2.34" height="5.95" transform="translate(69.03 5.95) rotate(-180)"/>
  <path class="cls-1" d="M18.24,19.06c-.08-.03-8.45-3.31-12.02-3.31v-2c3.95,0,12.4,3.31,12.75,3.45l-.73,1.86Z"/>
  <path class="cls-1" d="M18.24,27.14c-.08-.03-8.45-3.31-12.02-3.31v-2c3.95,0,12.4,3.31,12.75,3.45l-.73,1.86Z"/>
  <path class="cls-1" d="M18.72,35.68c-.08-.03-8.45-3.31-12.02-3.31v-2c3.95,0,12.4,3.31,12.75,3.45l-.73,1.86Z"/>
  <path class="cls-1" d="M23.71,49.48h-.42l-.29-.3C12.94,38.91,1.39,39.89,1.27,39.9l-1.07.1-.03-1.08C0,31.66-.41,7.74,1.19,5.39c1.65-2.41,11.89.86,20.19,4.03l-.71,1.87C13.16,8.42,4.27,5.87,2.82,6.57c-.83,1.84-.97,17.23-.67,31.3,3.15-.03,12.62.64,21.42,9.07,1.23-2.41,4.67-7.7,21.88-9.17v-19.65h2v21.5l-.93.07c-17.8,1.33-20.46,6.71-21.34,8.48-.3.61-.65,1.31-1.48,1.31Z"/>
  <path class="cls-1" d="M39.97,28.22h-10.27v-5.33c-1.08-1.04-3.19-3.58-2.49-7,.86-4.24,6.59-6.67,7.24-6.93l.45-.18.47.11c.26.06,6.37,1.6,6.59,6.55.16,3.79-1.81,6.14-2.56,6.99-.06.62-.14,2.08-.18,3.37l.76,2.42ZM32.7,25.22h3.53c.12-3.57.28-3.86.43-4.15.11-.2.24-.35.41-.54.55-.62,2-2.25,1.88-4.95-.09-2.15-2.75-3.26-3.84-3.63-1.53.72-4.55,2.51-4.96,4.54-.53,2.58,1.86,4.45,1.96,4.53l.58.45v3.75Z"/>
</svg>