<?xml version="1.0" encoding="UTF-8"?>
<svg xmlns="http://www.w3.org/2000/svg" xmlns:xlink="http://www.w3.org/1999/xlink" version="1.1" viewBox="0 0 50 50">
  <!-- Generator: Adobe Illustrator 30.2.1, SVG Export Plug-In . SVG Version: 2.1.1 Build 1)  -->
  <defs>
    <style>
      .st0 {
        fill: #1d1d1b;
      }

      .st1 {
        display: none;
      }
    </style>
  </defs>
  <g id="Calque_1" class="st1">
    <image width="48" height="48" transform="rotate(.2) scale(1)" xlink:href="../../../../../../../Desktop/Team-Idea--Streamline-Ultimate.png"/>
  </g>
  <g id="Calque_2">
    <rect class="st0" x="20.4" y="23.9" width="8.7" height="2.9"/>
    <rect class="st0" x="5.4" y="1.5" width="5.6" height="2.9" transform="translate(4.1 -4.8) rotate(42)"/>
    <rect class="st0" x="4.4" y="9.3" width="5.6" height="2.9"/>
    <rect class="st0" x="5.4" y="17.6" width="5.6" height="2.9" transform="translate(-12 14.1) rotate(-52.9)"/>
    <rect class="st0" x="38.4" y="1.5" width="5.6" height="2.9" transform="translate(73.8 -22.4) rotate(138)"/>
    <rect class="st0" x="39.4" y="9.3" width="5.6" height="2.9" transform="translate(84.5 21.5) rotate(-180)"/>
    <rect class="st0" x="38.4" y="17.6" width="5.6" height="2.9" transform="translate(50.9 63.5) rotate(-127.1)"/>
    <path class="st0" d="M6.7,44.9c-3.5,0-6.4-2.9-6.4-6.4s2.9-6.4,6.4-6.4,6.4,2.9,6.4,6.4-2.9,6.4-6.4,6.4ZM6.7,34.1c-2.4,0-4.4,2-4.4,4.4s2,4.4,4.4,4.4,4.4-2,4.4-4.4-2-4.4-4.4-4.4Z"/>
    <path class="st0" d="M25,44.3c-4,0-7.2-3.2-7.2-7.2s3.2-7.2,7.2-7.2,7.2,3.2,7.2,7.2-3.2,7.2-7.2,7.2ZM25,31.8c-2.9,0-5.2,2.4-5.2,5.2s2.4,5.2,5.2,5.2,5.2-2.4,5.2-5.2-2.4-5.2-5.2-5.2Z"/>
    <path class="st0" d="M42.5,43.5c-3.1,0-5.7-2.6-5.7-5.7s2.6-5.7,5.7-5.7,5.7,2.6,5.7,5.7-2.6,5.7-5.7,5.7ZM42.5,34.1c-2,0-3.7,1.7-3.7,3.7s1.7,3.7,3.7,3.7,3.7-1.7,3.7-3.7-1.7-3.7-3.7-3.7Z"/>
    <path class="st0" d="M12.8,49c-6.5-5.2-11.2-.3-11.4,0l-1.5-1.4c0,0,6.2-6.5,14.1-.1l-1.3,1.6Z"/>
    <path class="st0" d="M30.8,50.3c-6.5-5.3-11.2-.3-11.4-.1l-1.5-1.4c0,0,6.2-6.5,14.1-.1l-1.3,1.6Z"/>
    <path class="st0" d="M49.5,49c-6.5-5.3-11.2-.3-11.4-.1l-1.5-1.4c0,0,6.2-6.5,14.1-.1l-1.3,1.6Z"/>
    <path class="st0" d="M28.9,22.3h-9v-4.9c-1.3-1.4-4.4-4.9-4.4-7.7,0-1.9.9-4.8,2.9-6.9,1.7-1.7,3.8-2.6,6.2-2.6,6.1,0,10,4.5,10,8.5,0,3.6-3,7.5-4.2,8.6-.1.5-.2,2-.1,3.3v1.6c0,0-1.5,0-1.5,0ZM22.9,19.3h4.5c0-3.3.7-3.8,1.1-4,.5-.4,3.3-3.8,3.3-6.4,0-2.7-2.8-5.5-7.1-5.6-1.6,0-2.9.5-4.1,1.7-1.4,1.4-2.1,3.4-2.1,4.7,0,1.5,2.3,4.5,4,6.1l.4.4v3.1Z"/>
  </g>
</svg>