<?xml version="1.0" encoding="UTF-8"?>
<svg id="Calque_1" data-name="Calque 1" xmlns="http://www.w3.org/2000/svg" viewBox="0 0 45.19 45.19">
  <defs>
    <style>
      .cls-1 {
        fill: #1d1d1b;
      }
    </style>
  </defs>
  <path class="cls-1" d="M22.6,0C10.12,0,0,10.12,0,22.6s10.12,22.6,22.6,22.6,22.6-10.12,22.6-22.6S35.08,0,22.6,0ZM39.28,11.29l1.45,2.52-5.2,3-1.45-2.52,5.2-3ZM13.81,4.46l3,5.2-2.52,1.45-3-5.2,2.52-1.45ZM2.5,21.14h6.01v2.91H2.5v-2.91ZM5.92,33.91l-1.45-2.52,5.2-3,1.45,2.52-5.2,3ZM9.66,16.81l-5.2-3,1.45-2.52,5.2,3-1.45,2.52ZM13.81,40.73l-2.52-1.45,3-5.2,2.52,1.45-3,5.2ZM13.12,17.7l1.5-1.5,6.52,6.52v-11.44h1.56v14.83h-1.56v-.64l-.12.12-7.9-7.9ZM24.05,42.7h-2.91v-6.01h2.91v6.01ZM24.05,8.5h-2.91V2.5h2.91v6.01ZM31.39,40.73l-3-5.2,2.52-1.45,3,5.2-2.52,1.45ZM30.9,11.12l-2.52-1.45,3-5.2,2.52,1.45-3,5.2ZM39.28,33.91l-5.2-3,1.45-2.52,5.2,3-1.45,2.52ZM36.69,24.05v-2.91h6.01v2.91h-6.01Z"/>
</svg>