<?xml version="1.0" encoding="UTF-8"?>
<svg id="Calque_1" data-name="Calque 1" xmlns="http://www.w3.org/2000/svg" viewBox="0 0 30.12 41.7">
  <defs>
    <style>
      .cls-1 {
        fill: #1d1d1b;
      }

      .cls-2 {
        fill: #fff;
      }
    </style>
  </defs>
  <g>
    <circle class="cls-2" cx="15.06" cy="19.35" r="10.96"/>
    <path class="cls-1" d="M15.06,30.81c-6.32,0-11.46-5.14-11.46-11.46S8.74,7.89,15.06,7.89s11.46,5.14,11.46,11.46-5.14,11.46-11.46,11.46ZM15.06,8.89c-5.77,0-10.46,4.69-10.46,10.46s4.69,10.46,10.46,10.46,10.46-4.69,10.46-10.46-4.69-10.46-10.46-10.46Z"/>
  </g>
  <g>
    <path class="cls-2" d="M4.1,41.69c0-6.05,4.91-10.96,10.96-10.96s10.96,4.91,10.96,10.96"/>
    <path class="cls-1" d="M26.52,41.7h-1c0-5.77-4.69-10.46-10.46-10.46s-10.46,4.69-10.46,10.46h-1c0-6.32,5.14-11.46,11.46-11.46s11.46,5.14,11.46,11.46Z"/>
  </g>
  <g>
    <rect class="cls-1" x=".1" y="5.56" width="15.55" height="2.78" transform="translate(1.98 -1.74) rotate(14.44)"/>
    <rect class="cls-1" x="14.47" y="5.56" width="15.55" height="2.78" transform="translate(45.51 8.14) rotate(165.56)"/>
    <polyline class="cls-1" points="14.36 0 .69 3.67 13.83 8.55 29.83 5.27 29.42 3.67"/>
  </g>
</svg>