<?xml version="1.0" encoding="UTF-8"?>
<svg xmlns="http://www.w3.org/2000/svg" xmlns:xlink="http://www.w3.org/1999/xlink" version="1.1" viewBox="0 0 50 50">
  <!-- Generator: Adobe Illustrator 30.2.1, SVG Export Plug-In . SVG Version: 2.1.1 Build 1)  -->
  <defs>
    <style>
      .st0 {
        fill: #1d1d1b;
      }

      .st1 {
        display: none;
      }
    </style>
  </defs>
  <g id="Calque_1" class="st1">
    <image width="48" height="48" transform="scale(1)" xlink:href="../../../../../../../Desktop/Readernaut-Logo--Streamline-Ultimate(1).png"/>
  </g>
  <g id="Calque_2">
    <path class="st0" d="M0,32.1v8.5s12.4-2,24,9.3h1.6s8.1-11.1,23.2-10.3v-7s-19.3,2.1-23.3,7.4h-1.1s-1.2-6.4-24.4-7.9"/>
    <path class="st0" d="M38,23.8c1,7.4-6.3,11.7-13.4,11.7s-12.4-5.3-12.4-11.7,5.8-12.9,12.9-12.9,11.9,5.9,12.9,12.9Z"/>
    <path class="st0" d="M6.3,29.9v-10.1S13.8,5,24.4,6c5.3,0,5.4.4,5.4.4,0,0,13.2,5.9,13.4,14s0,9.1,0,9.1l4.9-1,1.8-2.8v-5.3s-1.8-2.9-2.5-3-.7-9.3-.7-9.3h1.7s3.6-7.5-.7-7.5-6.7,1.3-6.6,2.2.8,4.1,2.1,5.2,1.8,9,1.8,9l-1.2-.4s-4.7-12.7-15.2-12.6-16.6,3.8-17.5,4.8-4.1,5.2-4.8,7.2c-2.3.4-4.3,0-5.3,1.4s-1,8.9-1,8.9c0,0,3.7,3.1,6.3,3.5Z"/>
  </g>
</svg>