<?xml version="1.0" encoding="UTF-8"?>
<svg id="Student-Fill--Streamline-Phosphor-Fill" xmlns="http://www.w3.org/2000/svg" viewBox="0 0 15.68 15.08">
  <path d="M15.27,2.44L8.03.03c-.12-.04-.26-.04-.38,0L.41,2.44C.17,2.53,0,2.76,0,3.02v6.03C0,9.51.5,9.8.9,9.57c.19-.11.3-.31.3-.52V3.85l2.53.84c-1.4,2.26-.7,5.23,1.56,6.64-1.36.53-2.53,1.49-3.39,2.81-.26.39,0,.91.46.94.22.02.43-.09.55-.28,1.14-1.74,2.93-2.74,4.92-2.74s3.79,1,4.92,2.74c.26.39.84.35,1.04-.07.09-.19.08-.41-.03-.59-.86-1.32-2.04-2.28-3.39-2.81,2.26-1.4,2.95-4.37,1.56-6.63l3.33-1.11c.44-.15.56-.72.21-1.02-.06-.05-.13-.1-.21-.12h0ZM11.46,7.24c0,2.79-3.01,4.53-5.43,3.14-1.87-1.08-2.38-3.54-1.11-5.28l2.72.9c.12.04.26.04.38,0l2.72-.9c.46.62.71,1.37.7,2.14Z"/>
  <path d="M15.27,2.44L8.03.03c-.12-.04-.26-.04-.38,0L.41,2.44C.17,2.53,0,2.76,0,3.02v6.03C0,9.51.5,9.8.9,9.57c.19-.11.3-.31.3-.52V3.85l2.53.84c-1.4,2.26-.7,5.23,1.56,6.64-1.36.53-2.53,1.49-3.39,2.81-.26.39,0,.91.46.94.22.02.43-.09.55-.28,1.14-1.74,2.93-2.74,4.92-2.74s3.79,1,4.92,2.74c.26.39.84.35,1.04-.07.09-.19.08-.41-.03-.59-.86-1.32-2.04-2.28-3.39-2.81,2.26-1.4,2.95-4.37,1.56-6.63l3.33-1.11c.44-.15.56-.72.21-1.02-.06-.05-.13-.1-.21-.12h0ZM11.46,7.24c0,2.79-3.01,4.53-5.43,3.14-1.87-1.08-2.38-3.54-1.11-5.28l2.72.9c.12.04.26.04.38,0l2.72-.9c.46.62.71,1.37.7,2.14Z"/>
</svg>